<?xml version="1.0" encoding="UTF-8"?>
<!DOCTYPE svg PUBLIC "-//W3C//DTD SVG 1.1//EN" "http://www.w3.org/Graphics/SVG/1.1/DTD/svg11.dtd">
<svg xmlns="http://www.w3.org/2000/svg" version="1.1" width="150px" height="150px" style="shape-rendering:geometricPrecision; text-rendering:geometricPrecision; image-rendering:optimizeQuality; fill-rule:evenodd; clip-rule:evenodd" xmlns:xlink="http://www.w3.org/1999/xlink">
<g><path style="opacity:0.139" fill="#9adcfd" d="M 93.5,6.5 C 94.5,6.5 95.5,6.5 96.5,6.5C 96.0332,8.71104 95.0332,10.711 93.5,12.5C 92.5,12.1667 91.8333,11.5 91.5,10.5C 92.8532,9.4763 93.5198,8.14297 93.5,6.5 Z"/></g>
<g><path style="opacity:0.088" fill="#8ad3fa" d="M 9.5,13.5 C 10.2891,13.7828 10.9558,14.2828 11.5,15C 10.184,15.5281 9.51731,15.0281 9.5,13.5 Z"/></g>
<g><path style="opacity:0.122" fill="#b5e6ff" d="M 74.5,13.5 C 78.5551,13.6478 79.0551,14.6478 76,16.5C 74.9614,15.7562 74.4614,14.7562 74.5,13.5 Z"/></g>
<g><path style="opacity:0.435" fill="#82c4f2" d="M 114.5,17.5 C 112.914,16.8519 111.247,16.3519 109.5,16C 110.738,15.31 110.738,14.81 109.5,14.5C 111.478,11.6033 113.311,8.60327 115,5.5C 116.698,6.52894 117.532,8.02894 117.5,10C 116.135,12.3743 115.135,14.8743 114.5,17.5 Z"/></g>
<g><path style="opacity:0.227" fill="#abe4ff" d="M 89.5,15.5 C 92.6741,15.9522 93.0075,16.9522 90.5,18.5C 89.6143,17.675 89.281,16.675 89.5,15.5 Z"/></g>
<g><path style="opacity:0.467" fill="#9edafc" d="M 108.5,15.5 C 107.89,16.391 107.557,17.391 107.5,18.5C 104.918,18.9746 102.918,18.3079 101.5,16.5C 99.2362,17.2186 96.9029,17.552 94.5,17.5C 94.5,16.5 94.5,15.5 94.5,14.5C 98.5762,14.8793 102.243,13.8793 105.5,11.5C 106.057,13.3316 107.057,14.6649 108.5,15.5 Z M 101.5,16.5 C 102.172,15.7326 103.005,15.0659 104,14.5C 104.188,16.0613 103.355,16.728 101.5,16.5 Z"/></g>
<g><path style="opacity:0.624" fill="#5595da" d="M 12.5,23.5 C 12.5858,22.5041 12.2524,21.6708 11.5,21C 10.0406,21.3554 8.70722,21.1888 7.5,20.5C 8.70722,21.1888 10.0406,21.3554 11.5,21C 12.2524,21.6708 12.5858,22.5041 12.5,23.5 Z"/></g>
<g><path style="opacity:0.4" fill="#7dc3f5" d="M 73.5,22.5 C 70.8269,22.3155 70.1602,21.1489 71.5,19C 75.5533,18.5316 76.22,19.6983 73.5,22.5 Z"/></g>
<g><path style="opacity:0.296" fill="#86c9f4" d="M 53.5,20.5 C 53.3505,21.552 53.5172,22.552 54,23.5C 56.4645,25.4196 58.9645,27.2529 61.5,29C 59.5273,29.4955 57.5273,29.6621 55.5,29.5C 55.2562,26.7374 53.9229,24.5707 51.5,23C 49.0627,22.7965 46.7293,21.9632 44.5,20.5C 39.9771,25.12 34.6438,28.4534 28.5,30.5C 27.2857,28.6203 25.9524,28.2869 24.5,29.5C 22.3257,32.9368 19.9924,33.1034 17.5,30C 18.7996,28.4212 18.4663,27.2545 16.5,26.5C 16.56,25.9569 16.8933,25.6236 17.5,25.5C 18.8139,26.3128 19.9805,27.3128 21,28.5C 21.6924,27.9747 22.1924,27.3081 22.5,26.5C 20.5395,24.8872 18.2061,23.8872 15.5,23.5C 14.6143,22.675 14.281,21.675 14.5,20.5C 16.9201,20.2924 19.2534,20.6258 21.5,21.5C 22.935,19.5989 24.6017,19.2655 26.5,20.5C 24.7299,21.8196 24.3966,23.3196 25.5,25C 28.3618,24.9171 31.3618,25.0837 34.5,25.5C 34.44,21.38 32.7734,18.0467 29.5,15.5C 29.8333,14.5 30.5,13.8333 31.5,13.5C 33.9331,14.73 36.4331,15.73 39,16.5C 39.6667,15.8333 40.3333,15.1667 41,14.5C 45.37,16.2366 49.5367,18.2366 53.5,20.5 Z"/></g>
<g><path style="opacity:0.373" fill="#a5ddfe" d="M 73.5,22.5 C 76.8606,23.2032 77.1939,24.5365 74.5,26.5C 72.3576,25.5629 72.0243,24.2296 73.5,22.5 Z"/></g>
<g><path style="opacity:0.608" fill="#65a5e4" d="M 7.5,20.5 C 8.70722,21.1888 10.0406,21.3554 11.5,21C 12.2524,21.6708 12.5858,22.5041 12.5,23.5C 13.6005,24.6049 14.2671,25.9382 14.5,27.5C 13.7375,28.2679 12.7375,28.7679 11.5,29C 13.1066,30.049 13.7733,31.549 13.5,33.5C 12.609,32.8902 11.609,32.5569 10.5,32.5C 10.5,31.1667 10.5,29.8333 10.5,28.5C 8.80072,28.5271 7.46739,29.1938 6.5,30.5C 6.38321,28.5165 7.04988,26.8498 8.5,25.5C 6.51596,23.9536 6.18263,22.2869 7.5,20.5 Z"/></g>
<g><path style="opacity:0.361" fill="#93d3f8" d="M 10.5,32.5 C 8.6203,32.7709 7.28696,32.1042 6.5,30.5C 7.46739,29.1938 8.80072,28.5271 10.5,28.5C 10.5,29.8333 10.5,31.1667 10.5,32.5 Z"/></g>
<g><path style="opacity:0.388" fill="#7fc0f0" d="M 92.5,48.5 C 88.3631,49.6403 84.3631,49.1403 80.5,47C 81.5,46.6667 82.5,46.3333 83.5,46C 82.0577,45.6232 81.0577,44.7899 80.5,43.5C 82.5824,43.472 84.4157,44.1387 86,45.5C 87.3998,41.542 89.5665,38.042 92.5,35C 91.269,33.8173 91.269,32.6507 92.5,31.5C 94.1667,30.8333 95.8333,30.1667 97.5,29.5C 98.6309,31.0745 98.7975,32.7412 98,34.5C 95.7486,37.7055 93.582,41.0388 91.5,44.5C 92.0402,45.7481 92.7069,46.9148 93.5,48C 93.2716,48.3988 92.9382,48.5654 92.5,48.5 Z"/></g>
<g><path style="opacity:0.016" fill="#1b4c9e" d="M 114.5,32.5 C 114.5,33.1667 114.5,33.8333 114.5,34.5C 112.402,35.9143 111.402,35.2476 111.5,32.5C 112.5,32.5 113.5,32.5 114.5,32.5 Z"/></g>
<g><path style="opacity:0.667" fill="#60a5e2" d="M 21.5,35.5 C 23.2216,36.9999 24.8883,38.6666 26.5,40.5C 24.1667,39.8333 21.8333,39.1667 19.5,38.5C 17.8608,37.5275 16.5274,36.1942 15.5,34.5C 15.4614,33.2438 15.9614,32.2438 17,31.5C 18.6667,32.7332 20.1667,34.0665 21.5,35.5 Z"/></g>
<g><path style="opacity:0.304" fill="#ade7fd" d="M 53.5,20.5 C 56.7449,20.8801 59.7449,22.0468 62.5,24C 65.6488,28.647 68.9821,33.147 72.5,37.5C 74.9264,39.9407 77.593,41.9407 80.5,43.5C 81.0577,44.7899 82.0577,45.6232 83.5,46C 82.5,46.3333 81.5,46.6667 80.5,47C 84.3631,49.1403 88.3631,49.6403 92.5,48.5C 93.209,49.404 94.209,49.7373 95.5,49.5C 95.3118,47.8967 95.8118,46.5634 97,45.5C 98.3297,46.5822 99.8297,47.2488 101.5,47.5C 101.5,48.5 101.5,49.5 101.5,50.5C 100.833,49.8333 100.167,49.1667 99.5,48.5C 97.5759,48.7107 97.2426,49.3774 98.5,50.5C 99.3696,52.0319 99.0362,53.5319 97.5,55C 91.0061,59.7476 84.3394,64.2476 77.5,68.5C 73.6882,65.847 70.1882,62.847 67,59.5C 65.1886,60.4235 65.3553,61.2569 67.5,62C 67.1667,62.3333 66.8333,62.6667 66.5,63C 68.4205,64.1223 70.4205,64.9556 72.5,65.5C 72.8258,67.6607 73.8258,69.4941 75.5,71C 74.4734,71.5133 73.4734,72.0133 72.5,72.5C 72.6495,71.448 72.4828,70.448 72,69.5C 70.278,71.4441 68.1113,72.4441 65.5,72.5C 62.2676,71.882 59.2676,70.7153 56.5,69C 52.2503,63.9264 47.917,59.0931 43.5,54.5C 42.6091,52.3911 41.4424,50.3911 40,48.5C 40.0773,49.7376 39.9106,50.7376 39.5,51.5C 37.397,49.9362 36.5637,47.9362 37,45.5C 39.9457,48.5429 41.1124,47.8762 40.5,43.5C 38.2166,43.3921 36.2166,42.5588 34.5,41C 34.8333,40.6667 35.1667,40.3333 35.5,40C 34.1075,37.3341 32.4408,34.8341 30.5,32.5C 28.5841,31.7517 26.5841,31.7517 24.5,32.5C 24.5,31.5 24.5,30.5 24.5,29.5C 25.9524,28.2869 27.2857,28.6203 28.5,30.5C 34.6438,28.4534 39.9771,25.12 44.5,20.5C 46.7293,21.9632 49.0627,22.7965 51.5,23C 53.9229,24.5707 55.2562,26.7374 55.5,29.5C 57.5273,29.6621 59.5273,29.4955 61.5,29C 58.9645,27.2529 56.4645,25.4196 54,23.5C 53.5172,22.552 53.3505,21.552 53.5,20.5 Z M 99.5,48.5 C 99.1667,49.1667 98.8333,49.8333 98.5,50.5C 97.2426,49.3774 97.5759,48.7107 99.5,48.5 Z"/></g>
<g><path style="opacity:0.18" fill="#a1e2ff" d="M 74.5,34.5 C 76.4646,34.9483 76.7979,35.9483 75.5,37.5C 73.4807,36.8671 73.1474,35.8671 74.5,34.5 Z"/></g>
<g><path style="opacity:0.702" fill="#3b76bf" d="M 26.5,40.5 C 24.8883,38.6666 23.2216,36.9999 21.5,35.5C 23.144,34.6343 24.8107,34.1343 26.5,34C 27.7111,35.1131 27.7111,36.2798 26.5,37.5C 28.5075,39.0082 30.1741,40.8416 31.5,43C 29.5646,42.9421 27.8979,42.1088 26.5,40.5 Z"/></g>
<g><path style="opacity:0.437" fill="#68a4dd" d="M 109.5,14.5 C 110.738,14.81 110.738,15.31 109.5,16C 111.247,16.3519 112.914,16.8519 114.5,17.5C 114.5,22.5 114.5,27.5 114.5,32.5C 113.5,32.5 112.5,32.5 111.5,32.5C 111.402,35.2476 112.402,35.9143 114.5,34.5C 116.076,37.3116 117.91,39.9783 120,42.5C 122.811,40.8203 124.644,41.4869 125.5,44.5C 124.167,44.1667 122.833,43.8333 121.5,43.5C 120.542,43.9528 119.708,44.6195 119,45.5C 116.257,43.0973 113.924,40.4307 112,37.5C 111.53,38.5768 111.697,39.5768 112.5,40.5C 110.665,39.8777 109.498,38.5444 109,36.5C 107.708,41.9312 105.208,46.5978 101.5,50.5C 101.5,49.5 101.5,48.5 101.5,47.5C 104.172,45.4202 104.505,43.2535 102.5,41C 102.667,40.5 102.833,40 103,39.5C 104.764,36.8209 106.431,34.1542 108,31.5C 108.246,28.1103 108.746,24.777 109.5,21.5C 109.058,20.2613 108.391,19.2613 107.5,18.5C 107.557,17.391 107.89,16.391 108.5,15.5C 108.5,14.8333 108.833,14.5 109.5,14.5 Z M 105.5,37.5 C 106.797,38.8488 106.63,40.1821 105,41.5C 104.805,40.1807 104.972,38.8474 105.5,37.5 Z"/></g>
<g><path style="opacity:0.004" fill="#fefffe" d="M 17.5,40.5 C 18.525,40.8966 18.6917,41.5632 18,42.5C 17.5357,41.9056 17.369,41.2389 17.5,40.5 Z"/></g>
<g><path style="opacity:0.863" fill="#2d589f" d="M 121.5,43.5 C 121.5,44.8333 121.5,46.1667 121.5,47.5C 119.827,47.7644 118.16,47.2644 116.5,46C 115.303,43.9847 113.97,42.1513 112.5,40.5C 111.697,39.5768 111.53,38.5768 112,37.5C 113.924,40.4307 116.257,43.0973 119,45.5C 119.708,44.6195 120.542,43.9528 121.5,43.5 Z"/></g>
<g><path style="opacity:0.341" fill="#9eddfa" d="M 112.5,40.5 C 113.97,42.1513 115.303,43.9847 116.5,46C 118.16,47.2644 119.827,47.7644 121.5,47.5C 120.489,49.4024 120.322,51.4024 121,53.5C 121.333,52.5 121.667,51.5 122,50.5C 123.419,52.9929 124.919,55.3263 126.5,57.5C 126.423,58.7498 125.756,59.5831 124.5,60C 126.019,61.3513 127.352,62.8513 128.5,64.5C 127.167,65.1667 125.833,65.8333 124.5,66.5C 129.591,68.2107 129.591,69.544 124.5,70.5C 123.702,70.9569 123.369,71.6236 123.5,72.5C 122.778,72.0825 122.278,71.4158 122,70.5C 121.697,66.106 121.03,61.7727 120,57.5C 119.502,60.4816 119.335,63.4816 119.5,66.5C 117.283,67.2376 115.116,67.5709 113,67.5C 112.558,65.3215 111.558,64.6548 110,65.5C 108.428,63.4372 106.595,62.7706 104.5,63.5C 107.811,65.3399 108.144,67.3399 105.5,69.5C 103.906,69.0805 102.406,68.4138 101,67.5C 100.228,67.6448 99.5613,67.9781 99,68.5C 99.0773,67.2624 98.9106,66.2624 98.5,65.5C 96.5504,66.3721 94.5504,67.0388 92.5,67.5C 94.7887,65.552 97.122,63.552 99.5,61.5C 99.3333,61.1667 99.1667,60.8333 99,60.5C 95.6258,62.2478 92.1258,63.4144 88.5,64C 91.9584,59.768 96.2917,56.768 101.5,55C 100.587,53.5861 100.587,52.0861 101.5,50.5C 105.208,46.5978 107.708,41.9312 109,36.5C 109.498,38.5444 110.665,39.8777 112.5,40.5 Z"/></g>
<g><path style="opacity:0.18" fill="#75ade2" d="M 136.5,53.5 C 135.152,54.1859 133.985,55.1859 133,56.5C 131.902,55.0325 130.402,54.1992 128.5,54C 127.177,53.1841 126.511,52.0174 126.5,50.5C 129.405,47.5564 132.238,44.5564 135,41.5C 137.167,42.3333 138.667,43.8333 139.5,46C 137.189,47.6447 135.189,49.6447 133.5,52C 134.737,52.2321 135.737,52.7321 136.5,53.5 Z"/></g>
<g><path style="opacity:0.391" fill="#9cdafa" d="M 16.5,26.5 C 18.4663,27.2545 18.7996,28.4212 17.5,30C 19.9924,33.1034 22.3257,32.9368 24.5,29.5C 24.5,30.5 24.5,31.5 24.5,32.5C 26.5841,31.7517 28.5841,31.7517 30.5,32.5C 32.4408,34.8341 34.1075,37.3341 35.5,40C 35.1667,40.3333 34.8333,40.6667 34.5,41C 36.2166,42.5588 38.2166,43.3921 40.5,43.5C 41.1124,47.8762 39.9457,48.5429 37,45.5C 36.5637,47.9362 37.397,49.9362 39.5,51.5C 39.9106,50.7376 40.0773,49.7376 40,48.5C 41.4424,50.3911 42.6091,52.3911 43.5,54.5C 43.4257,56.4109 42.4257,57.5776 40.5,58C 42.5127,59.7913 42.5127,61.1247 40.5,62C 42.9351,64.7922 42.9351,67.2922 40.5,69.5C 38.7287,66.7774 36.3954,66.1107 33.5,67.5C 32.0527,66.1148 31.0527,66.4482 30.5,68.5C 30.631,69.2389 30.4643,69.9056 30,70.5C 28.5432,67.634 28.2099,64.634 29,61.5C 30.0437,62.6226 30.7104,63.9559 31,65.5C 31.6667,63.8333 31.6667,62.1667 31,60.5C 29.6015,59.9491 28.2682,59.6158 27,59.5C 27.8615,67.5384 27.3615,75.5384 25.5,83.5C 26.5507,85.5318 28.2173,86.8652 30.5,87.5C 29.0921,88.2432 27.7588,89.0766 26.5,90C 30.5,90.3333 34.5,90.6667 38.5,91C 34.789,91.1747 31.1224,91.6747 27.5,92.5C 28.376,93.2508 29.376,93.7508 30.5,94C 27.0568,96.7725 23.0568,98.1058 18.5,98C 19.3081,98.3076 19.9747,98.8076 20.5,99.5C 18.9208,100.667 17.5875,102 16.5,103.5C 14.7853,102.343 12.7853,101.676 10.5,101.5C 6.83748,101.944 3.17081,102.278 -0.5,102.5C -0.5,99.1667 -0.5,95.8333 -0.5,92.5C 3.51383,92.6655 7.51383,92.4988 11.5,92C 14.228,89.6078 17.228,87.6078 20.5,86C 22.1412,84.871 23.1412,83.371 23.5,81.5C 25.2879,77.5213 26.2879,73.5213 26.5,69.5C 24.534,60.6256 23.3673,51.6256 23,42.5C 22.3103,40.6498 21.1436,39.3164 19.5,38.5C 21.8333,39.1667 24.1667,39.8333 26.5,40.5C 27.8979,42.1088 29.5646,42.9421 31.5,43C 30.1741,40.8416 28.5075,39.0082 26.5,37.5C 27.7111,36.2798 27.7111,35.1131 26.5,34C 24.8107,34.1343 23.144,34.6343 21.5,35.5C 20.1667,34.0665 18.6667,32.7332 17,31.5C 15.9614,32.2438 15.4614,33.2438 15.5,34.5C 14.8333,34.1667 14.1667,33.8333 13.5,33.5C 13.7733,31.549 13.1066,30.049 11.5,29C 12.7375,28.7679 13.7375,28.2679 14.5,27.5C 15.4916,27.6716 16.1583,27.3382 16.5,26.5 Z"/></g>
<g><path style="opacity:0.616" fill="#4684c8" d="M 121.5,47.5 C 123.7,49.3778 125.367,51.7111 126.5,54.5C 128.046,55.684 129.713,56.684 131.5,57.5C 132.55,58.4288 132.55,59.0954 131.5,59.5C 129.627,60.0891 127.96,59.4224 126.5,57.5C 124.919,55.3263 123.419,52.9929 122,50.5C 121.667,51.5 121.333,52.5 121,53.5C 120.322,51.4024 120.489,49.4024 121.5,47.5 Z"/></g>
<g><path style="opacity:0.004" fill="#fefffe" d="M 0.5,56.5 C 1.83333,57.1667 1.83333,57.1667 0.5,56.5 Z"/></g>
<g><path style="opacity:0.122" fill="#90cff5" d="M 121.5,43.5 C 122.833,43.8333 124.167,44.1667 125.5,44.5C 126.461,46.2646 126.795,48.2646 126.5,50.5C 126.511,52.0174 127.177,53.1841 128.5,54C 130.402,54.1992 131.902,55.0325 133,56.5C 133.985,55.1859 135.152,54.1859 136.5,53.5C 137.695,53.8656 138.361,54.699 138.5,56C 136.041,59.1819 134.041,62.6819 132.5,66.5C 132.624,67.1067 132.957,67.44 133.5,67.5C 134.326,71.1359 134.992,74.8026 135.5,78.5C 133.398,75.1388 131.398,71.6388 129.5,68C 130.711,66.8869 130.711,65.7202 129.5,64.5C 130.376,63.7492 131.376,63.2492 132.5,63C 131.663,61.9887 131.33,60.8221 131.5,59.5C 132.55,59.0954 132.55,58.4288 131.5,57.5C 129.713,56.684 128.046,55.684 126.5,54.5C 125.367,51.7111 123.7,49.3778 121.5,47.5C 121.5,46.1667 121.5,44.8333 121.5,43.5 Z"/></g>
<g><path style="opacity:0.004" fill="#fefffe" d="M 133.5,66.5 C 134.833,67.1667 134.833,67.1667 133.5,66.5 Z"/></g>
<g><path style="opacity:0.6" fill="#5ba7e7" d="M 40.5,69.5 C 38.7839,69.6287 37.1172,69.962 35.5,70.5C 32.4371,71.7646 31.7704,70.7646 33.5,67.5C 36.3954,66.1107 38.7287,66.7774 40.5,69.5 Z"/></g>
<g><path style="opacity:0.529" fill="#72b9ec" d="M 119.5,66.5 C 119.631,69.3667 118.297,71.0334 115.5,71.5C 112.222,71.5526 108.889,71.2192 105.5,70.5C 105.5,70.1667 105.5,69.8333 105.5,69.5C 108.144,67.3399 107.811,65.3399 104.5,63.5C 106.595,62.7706 108.428,63.4372 110,65.5C 111.558,64.6548 112.558,65.3215 113,67.5C 115.116,67.5709 117.283,67.2376 119.5,66.5 Z"/></g>
<g><path style="opacity:0.953" fill="#133f89" d="M 40.5,69.5 C 41.5667,73.717 43.5667,74.3836 46.5,71.5C 47.3382,71.8417 47.6716,72.5084 47.5,73.5C 43.5872,74.2014 39.5872,74.2014 35.5,73.5C 34.375,72.6522 34.375,71.6522 35.5,70.5C 37.1172,69.962 38.7839,69.6287 40.5,69.5 Z"/></g>
<g><path style="opacity:0.004" fill="#fefffe" d="M 6.5,72.5 C 7.83333,73.1667 7.83333,73.1667 6.5,72.5 Z"/></g>
<g><path style="opacity:0.475" fill="#63a5df" d="M 99.5,48.5 C 100.167,49.1667 100.833,49.8333 101.5,50.5C 100.587,52.0861 100.587,53.5861 101.5,55C 96.2917,56.768 91.9584,59.768 88.5,64C 92.1258,63.4144 95.6258,62.2478 99,60.5C 99.1667,60.8333 99.3333,61.1667 99.5,61.5C 97.122,63.552 94.7887,65.552 92.5,67.5C 92.394,70.8036 90.394,72.9703 86.5,74C 85.7476,74.6708 85.4142,75.5041 85.5,76.5C 81.3616,72.2559 78.695,72.9226 77.5,78.5C 76.5,78.8333 75.8333,79.5 75.5,80.5C 74.9569,80.44 74.6236,80.1067 74.5,79.5C 80.1447,71.4639 78.8113,70.4639 70.5,76.5C 70.1667,76.3333 69.8333,76.1667 69.5,76C 70.7101,74.9609 71.7101,73.7942 72.5,72.5C 73.4734,72.0133 74.4734,71.5133 75.5,71C 73.8258,69.4941 72.8258,67.6607 72.5,65.5C 70.4205,64.9556 68.4205,64.1223 66.5,63C 66.8333,62.6667 67.1667,62.3333 67.5,62C 65.3553,61.2569 65.1886,60.4235 67,59.5C 70.1882,62.847 73.6882,65.847 77.5,68.5C 84.3394,64.2476 91.0061,59.7476 97.5,55C 99.0362,53.5319 99.3696,52.0319 98.5,50.5C 98.8333,49.8333 99.1667,49.1667 99.5,48.5 Z"/></g>
<g><path style="opacity:0.729" fill="#2d528b" d="M 87.5,65.5 C 88.7733,66.0768 88.7733,66.7435 87.5,67.5C 85.6687,68.9294 83.6687,69.4294 81.5,69C 83.4319,67.5415 85.4319,66.3748 87.5,65.5 Z"/></g>
<g><path style="opacity:0.851" fill="#3777bf" d="M 105.5,69.5 C 105.5,69.8333 105.5,70.1667 105.5,70.5C 105.5,70.8333 105.5,71.1667 105.5,71.5C 105.167,71.5 104.833,71.5 104.5,71.5C 103.85,71.1961 103.183,70.8627 102.5,70.5C 101.358,71.8262 100.024,72.8262 98.5,73.5C 97.9264,72.4719 97.593,71.4719 97.5,70.5C 94.0707,72.5392 90.7374,74.5392 87.5,76.5C 86.8333,76.5 86.1667,76.5 85.5,76.5C 85.4142,75.5041 85.7476,74.6708 86.5,74C 90.394,72.9703 92.394,70.8036 92.5,67.5C 94.5504,67.0388 96.5504,66.3721 98.5,65.5C 98.9106,66.2624 99.0773,67.2624 99,68.5C 99.5613,67.9781 100.228,67.6448 101,67.5C 102.406,68.4138 103.906,69.0805 105.5,69.5 Z"/></g>
<g><path style="opacity:0.855" fill="#1f59aa" d="M 105.5,71.5 C 105.5,71.1667 105.5,70.8333 105.5,70.5C 108.889,71.2192 112.222,71.5526 115.5,71.5C 117.223,72.807 119.057,72.807 121,71.5C 121.5,72.6667 122.333,73.5 123.5,74C 121.595,74.8261 121.261,75.9928 122.5,77.5C 123.833,77.8333 125.167,78.1667 126.5,78.5C 126.167,79.1667 125.833,79.8333 125.5,80.5C 123.659,81.2304 121.825,81.8971 120,82.5C 119.817,79.6353 119.317,76.9686 118.5,74.5C 116.643,73.2463 114.643,73.2463 112.5,74.5C 110.261,73.2122 107.928,72.2122 105.5,71.5 Z"/></g>
<g><path style="opacity:0.246" fill="#b4e9fa" d="M 53.5,70.5 C 56.8333,72.1667 60.1667,73.8333 63.5,75.5C 63.6107,76.1174 63.944,76.6174 64.5,77C 63.1667,77.6667 61.8333,77.6667 60.5,77C 58.5,75.6667 56.5,74.3333 54.5,73C 53.7476,72.3292 53.4142,71.4959 53.5,70.5 Z"/></g>
<g><path style="opacity:0.49" fill="#79c5f5" d="M 98.5,73.5 C 97.1873,79.9255 94.854,80.5921 91.5,75.5C 90.4718,77.5803 89.1385,77.9136 87.5,76.5C 90.7374,74.5392 94.0707,72.5392 97.5,70.5C 97.593,71.4719 97.9264,72.4719 98.5,73.5 Z"/></g>
<g><path style="opacity:0.525" fill="#74c3f8" d="M 35.5,73.5 C 39.5872,74.2014 43.5872,74.2014 47.5,73.5C 49.2132,74.6354 49.8799,76.302 49.5,78.5C 49.6309,79.3764 49.2975,80.0431 48.5,80.5C 45.2855,80.1803 41.9521,80.1803 38.5,80.5C 37.2947,79.3281 37.2947,77.9948 38.5,76.5C 37.0065,75.8589 36.0065,74.8589 35.5,73.5 Z"/></g>
<g><path style="opacity:0.808" fill="#307fce" d="M 33.5,67.5 C 31.7704,70.7646 32.4371,71.7646 35.5,70.5C 34.375,71.6522 34.375,72.6522 35.5,73.5C 36.0065,74.8589 37.0065,75.8589 38.5,76.5C 37.2947,77.9948 37.2947,79.3281 38.5,80.5C 38.9191,83.0257 39.0858,85.359 39,87.5C 41.2003,86.0099 43.0336,86.3432 44.5,88.5C 41.9135,89.48 39.2469,89.8134 36.5,89.5C 36.5198,87.857 35.8532,86.5237 34.5,85.5C 34.8457,84.3044 35.3457,84.3044 36,85.5C 35.8516,84.175 36.0183,83.0084 36.5,82C 30.4323,79.9437 28.7657,76.1104 31.5,70.5C 31.4573,69.5836 31.1239,68.9169 30.5,68.5C 31.0527,66.4482 32.0527,66.1148 33.5,67.5 Z"/></g>
<g><path style="opacity:0.295" fill="#adeafe" d="M 104.5,71.5 C 103.382,74.178 103.382,76.8447 104.5,79.5C 104.272,81.3969 103.272,82.7303 101.5,83.5C 97.5641,83.9019 93.5641,83.9019 89.5,83.5C 88.1667,84.5 86.8333,85.5 85.5,86.5C 85.5684,85.1495 85.5684,83.8162 85.5,82.5C 82.5773,81.5524 79.9107,80.2191 77.5,78.5C 78.695,72.9226 81.3616,72.2559 85.5,76.5C 86.1667,76.5 86.8333,76.5 87.5,76.5C 89.1385,77.9136 90.4718,77.5803 91.5,75.5C 94.854,80.5921 97.1873,79.9255 98.5,73.5C 100.024,72.8262 101.358,71.8262 102.5,70.5C 103.183,70.8627 103.85,71.1961 104.5,71.5 Z"/></g>
<g><path style="opacity:0.571" fill="#6cb9f1" d="M 43.5,54.5 C 47.917,59.0931 52.2503,63.9264 56.5,69C 59.2676,70.7153 62.2676,71.882 65.5,72.5C 68.1113,72.4441 70.278,71.4441 72,69.5C 72.4828,70.448 72.6495,71.448 72.5,72.5C 71.7101,73.7942 70.7101,74.9609 69.5,76C 69.8333,76.1667 70.1667,76.3333 70.5,76.5C 78.8113,70.4639 80.1447,71.4639 74.5,79.5C 74.6236,80.1067 74.9569,80.44 75.5,80.5C 76.2299,81.7124 77.2299,82.7124 78.5,83.5C 77.8333,83.8333 77.1667,84.1667 76.5,84.5C 78.482,85.2162 80.1487,86.3829 81.5,88C 89.1238,88.554 96.4572,87.3873 103.5,84.5C 102.77,85.7124 101.77,86.7124 100.5,87.5C 100.863,88.1835 101.196,88.8501 101.5,89.5C 97.4862,89.3345 93.4862,89.5012 89.5,90C 92.981,91.1135 96.481,92.2801 100,93.5C 100.654,92.3044 101.154,92.3044 101.5,93.5C 98.8333,94.1667 96.1667,94.8333 93.5,95.5C 95.3328,97.05 97.4994,98.05 100,98.5C 102.147,97.5243 104.314,97.691 106.5,99C 101.279,100.232 95.9459,100.899 90.5,101C 94.2325,101.972 93.8991,102.472 89.5,102.5C 86.4552,101.582 83.4552,101.582 80.5,102.5C 77.9719,101.058 75.3053,100.558 72.5,101C 75.1821,104.42 74.3487,105.253 70,103.5C 69.2828,104.044 68.7828,104.711 68.5,105.5C 63.197,104.77 57.8636,104.604 52.5,105C 57.5409,102.895 62.8743,101.895 68.5,102C 68.1667,101.667 67.8333,101.333 67.5,101C 68.9733,100.29 69.6399,99.1238 69.5,97.5C 65.9082,97.7143 62.4082,98.3809 59,99.5C 57.8333,99.3333 56.6667,99.1667 55.5,99C 56.4158,98.7216 57.0825,98.2216 57.5,97.5C 59.4832,97.8432 60.8166,97.1765 61.5,95.5C 64.3743,95.4511 67.2077,95.7844 70,96.5C 70.8333,96.1667 71.6667,95.8333 72.5,95.5C 70.9223,94.7022 69.2556,94.2022 67.5,94C 72.7255,94.0411 77.7255,93.2078 82.5,91.5C 84.7964,91.4275 87.1297,91.5942 89.5,92C 85.0148,90.7258 80.3481,90.0591 75.5,90C 75.8333,89.6667 76.1667,89.3333 76.5,89C 74.2953,86.4598 71.7953,84.2932 69,82.5C 67.6012,79.3707 65.9345,76.3707 64,73.5C 63.5357,74.0944 63.369,74.7611 63.5,75.5C 60.1667,73.8333 56.8333,72.1667 53.5,70.5C 49.8998,68.5698 46.8998,65.9031 44.5,62.5C 44.3903,64.0982 44.057,65.7648 43.5,67.5C 44.5244,68.8518 45.5244,70.1851 46.5,71.5C 43.5667,74.3836 41.5667,73.717 40.5,69.5C 42.9351,67.2922 42.9351,64.7922 40.5,62C 42.5127,61.1247 42.5127,59.7913 40.5,58C 42.4257,57.5776 43.4257,56.4109 43.5,54.5 Z"/></g>
<g><path style="opacity:0.004" fill="#fefffe" d="M 16.5,85.5 C 15.8333,84.1667 15.8333,84.1667 16.5,85.5 Z"/></g>
<g><path style="opacity:0.465" fill="#7ccafb" d="M 104.5,71.5 C 104.833,71.5 105.167,71.5 105.5,71.5C 107.928,72.2122 110.261,73.2122 112.5,74.5C 114.643,73.2463 116.643,73.2463 118.5,74.5C 118.67,75.8221 118.337,76.9887 117.5,78C 113.879,78.1783 111.212,79.845 109.5,83C 107.564,83.813 105.564,84.313 103.5,84.5C 96.4572,87.3873 89.1238,88.554 81.5,88C 80.1487,86.3829 78.482,85.2162 76.5,84.5C 77.1667,84.1667 77.8333,83.8333 78.5,83.5C 77.2299,82.7124 76.2299,81.7124 75.5,80.5C 75.8333,79.5 76.5,78.8333 77.5,78.5C 79.9107,80.2191 82.5773,81.5524 85.5,82.5C 85.5684,83.8162 85.5684,85.1495 85.5,86.5C 86.8333,85.5 88.1667,84.5 89.5,83.5C 93.5641,83.9019 97.5641,83.9019 101.5,83.5C 103.272,82.7303 104.272,81.3969 104.5,79.5C 103.382,76.8447 103.382,74.178 104.5,71.5 Z"/></g>
<g><path style="opacity:0.818" fill="#3385d4" d="M 123.5,72.5 C 126.685,71.2408 129.352,72.0741 131.5,75C 130.004,75.5074 128.837,75.0074 128,73.5C 127.186,75.9018 127.353,78.2351 128.5,80.5C 130.142,81.7987 131.476,83.2987 132.5,85C 131.065,88.2622 129.065,91.0956 126.5,93.5C 128.173,95.0863 130.173,95.7529 132.5,95.5C 132.842,96.3382 133.508,96.6716 134.5,96.5C 135.23,98.045 136.563,98.8784 138.5,99C 137.051,100.117 135.384,100.784 133.5,101C 134.167,101.333 134.833,101.667 135.5,102C 134.167,103.667 132.833,105.333 131.5,107C 132.448,107.483 133.448,107.649 134.5,107.5C 134.833,107.5 135.167,107.5 135.5,107.5C 136.058,108.79 137.058,109.623 138.5,110C 140.952,110.29 143.285,110.956 145.5,112C 144.892,112.87 144.059,113.37 143,113.5C 137.021,112.547 131.188,111.047 125.5,109C 126.167,108.667 126.833,108.333 127.5,108C 125.888,107.28 124.388,107.446 123,108.5C 122.5,108 122,107.5 121.5,107C 122.91,106.632 123.91,105.799 124.5,104.5C 122.234,103.686 119.9,103.186 117.5,103C 118.738,102.31 118.738,101.81 117.5,101.5C 119.969,100.683 122.635,100.183 125.5,100C 121.833,99.6667 118.167,99.3333 114.5,99C 118.833,98.6667 123.167,98.3333 127.5,98C 124.377,97.7935 121.377,97.1268 118.5,96C 119.833,95.3333 119.833,94.6667 118.5,94C 120.569,93.6758 120.902,92.8425 119.5,91.5C 117.031,90.8319 114.698,90.1653 112.5,89.5C 114.857,89.6633 117.19,89.4966 119.5,89C 118.242,83.3713 115.242,82.2046 110.5,85.5C 109.451,87.2156 108.118,88.5489 106.5,89.5C 105.5,89.5 104.5,89.5 103.5,89.5C 102.833,89.5 102.167,89.5 101.5,89.5C 101.196,88.8501 100.863,88.1835 100.5,87.5C 101.77,86.7124 102.77,85.7124 103.5,84.5C 105.564,84.313 107.564,83.813 109.5,83C 111.212,79.845 113.879,78.1783 117.5,78C 118.337,76.9887 118.67,75.8221 118.5,74.5C 119.317,76.9686 119.817,79.6353 120,82.5C 121.825,81.8971 123.659,81.2304 125.5,80.5C 125.833,79.8333 126.167,79.1667 126.5,78.5C 125.167,78.1667 123.833,77.8333 122.5,77.5C 121.261,75.9928 121.595,74.8261 123.5,74C 122.333,73.5 121.5,72.6667 121,71.5C 119.057,72.807 117.223,72.807 115.5,71.5C 118.297,71.0334 119.631,69.3667 119.5,66.5C 119.335,63.4816 119.502,60.4816 120,57.5C 121.03,61.7727 121.697,66.106 122,70.5C 122.278,71.4158 122.778,72.0825 123.5,72.5 Z"/></g>
<g><path style="opacity:0.641" fill="#5fb1f0" d="M 126.5,57.5 C 127.96,59.4224 129.627,60.0891 131.5,59.5C 131.33,60.8221 131.663,61.9887 132.5,63C 131.376,63.2492 130.376,63.7492 129.5,64.5C 130.711,65.7202 130.711,66.8869 129.5,68C 131.398,71.6388 133.398,75.1388 135.5,78.5C 135.59,80.6963 135.923,82.863 136.5,85C 136.156,86.3651 135.489,87.5318 134.5,88.5C 139.169,91.021 144.169,92.021 149.5,91.5C 149.5,92.1667 149.5,92.8333 149.5,93.5C 144.147,92.2223 138.813,92.3889 133.5,94C 132.944,94.3826 132.611,94.8826 132.5,95.5C 130.173,95.7529 128.173,95.0863 126.5,93.5C 129.065,91.0956 131.065,88.2622 132.5,85C 131.476,83.2987 130.142,81.7987 128.5,80.5C 127.353,78.2351 127.186,75.9018 128,73.5C 128.837,75.0074 130.004,75.5074 131.5,75C 129.352,72.0741 126.685,71.2408 123.5,72.5C 123.369,71.6236 123.702,70.9569 124.5,70.5C 129.591,69.544 129.591,68.2107 124.5,66.5C 125.833,65.8333 127.167,65.1667 128.5,64.5C 127.352,62.8513 126.019,61.3513 124.5,60C 125.756,59.5831 126.423,58.7498 126.5,57.5 Z"/></g>
<g><path style="opacity:0.91" fill="#1751a2" d="M 112.5,89.5 C 110.5,89.5 108.5,89.5 106.5,89.5C 108.118,88.5489 109.451,87.2156 110.5,85.5C 115.242,82.2046 118.242,83.3713 119.5,89C 117.19,89.4966 114.857,89.6633 112.5,89.5 Z"/></g>
<g><path style="opacity:0.307" fill="#afe7fe" d="M 135.5,78.5 C 138.154,84.5006 142.82,87.5006 149.5,87.5C 149.5,88.8333 149.5,90.1667 149.5,91.5C 144.169,92.021 139.169,91.021 134.5,88.5C 135.489,87.5318 136.156,86.3651 136.5,85C 135.923,82.863 135.59,80.6963 135.5,78.5 Z"/></g>
<g><path style="opacity:0.243" fill="#d4f6ff" d="M 23.5,81.5 C 23.1412,83.371 22.1412,84.871 20.5,86C 17.228,87.6078 14.228,89.6078 11.5,92C 7.51383,92.4988 3.51383,92.6655 -0.5,92.5C -0.5,91.8333 -0.5,91.1667 -0.5,90.5C 5.3602,89.202 11.0269,87.5353 16.5,85.5C 19.2948,84.937 21.6282,83.6037 23.5,81.5 Z"/></g>
<g><path style="opacity:0.902" fill="#2d74c2" d="M 53.5,70.5 C 53.4142,71.4959 53.7476,72.3292 54.5,73C 56.5,74.3333 58.5,75.6667 60.5,77C 61.8333,77.6667 63.1667,77.6667 64.5,77C 63.944,76.6174 63.6107,76.1174 63.5,75.5C 63.369,74.7611 63.5357,74.0944 64,73.5C 65.9345,76.3707 67.6012,79.3707 69,82.5C 71.7953,84.2932 74.2953,86.4598 76.5,89C 76.1667,89.3333 75.8333,89.6667 75.5,90C 80.3481,90.0591 85.0148,90.7258 89.5,92C 87.1297,91.5942 84.7964,91.4275 82.5,91.5C 77.7255,93.2078 72.7255,94.0411 67.5,94C 69.2556,94.2022 70.9223,94.7022 72.5,95.5C 71.6667,95.8333 70.8333,96.1667 70,96.5C 67.2077,95.7844 64.3743,95.4511 61.5,95.5C 61.5,94.5 61.5,93.5 61.5,92.5C 63.4286,92.7692 65.0953,92.2692 66.5,91C 65.552,90.5172 64.552,90.3505 63.5,90.5C 63.3433,89.1266 63.51,87.7932 64,86.5C 64.7253,88.158 65.892,88.658 67.5,88C 64.1667,85.3333 60.8333,82.6667 57.5,80C 56.5399,78.5806 55.7065,77.0806 55,75.5C 54.6667,75.8333 54.3333,76.1667 54,76.5C 53.0347,74.7397 51.868,74.4063 50.5,75.5C 52.8681,80.0359 54.8681,84.3692 56.5,88.5C 54.2573,89.4742 51.924,89.8076 49.5,89.5C 49.5,87.8333 49.5,86.1667 49.5,84.5C 48.1779,84.33 47.0113,84.6634 46,85.5C 45.6258,84.5838 45.1258,83.7504 44.5,83C 46.9005,82.8142 49.2338,82.3142 51.5,81.5C 51.0576,80.2613 50.3909,79.2613 49.5,78.5C 49.8799,76.302 49.2132,74.6354 47.5,73.5C 47.6716,72.5084 47.3382,71.8417 46.5,71.5C 45.5244,70.1851 44.5244,68.8518 43.5,67.5C 44.057,65.7648 44.3903,64.0982 44.5,62.5C 46.8998,65.9031 49.8998,68.5698 53.5,70.5 Z"/></g>
<g><path style="opacity:0.363" fill="#a1dffe" d="M 149.5,93.5 C 149.5,95.5 149.5,97.5 149.5,99.5C 144.395,98.8789 139.395,97.8789 134.5,96.5C 133.508,96.6716 132.842,96.3382 132.5,95.5C 132.611,94.8826 132.944,94.3826 133.5,94C 138.813,92.3889 144.147,92.2223 149.5,93.5 Z"/></g>
<g><path style="opacity:0.402" fill="#87d2fa" d="M 101.5,89.5 C 102.167,89.5 102.833,89.5 103.5,89.5C 104.122,91.335 105.456,92.5017 107.5,93C 106.5,93.3333 105.5,93.6667 104.5,94C 106.705,95.706 109.038,97.206 111.5,98.5C 110.624,99.2508 109.624,99.7508 108.5,100C 110.384,100.216 112.051,100.883 113.5,102C 111.143,101.825 108.977,101.658 107,101.5C 105.086,102.676 105.252,103.676 107.5,104.5C 106.624,105.251 105.624,105.751 104.5,106C 107.069,106.898 109.402,108.065 111.5,109.5C 108.161,111.528 104.827,112.861 101.5,113.5C 103.396,114.466 105.396,114.799 107.5,114.5C 109.861,114.674 112.194,115.007 114.5,115.5C 114.277,118.114 115.444,119.781 118,120.5C 119.705,119.318 122.039,118.652 125,118.5C 126.487,119.253 126.654,120.086 125.5,121C 128.471,121.794 131.471,122.461 134.5,123C 135.056,123.383 135.389,123.883 135.5,124.5C 133.139,124.674 130.806,125.007 128.5,125.5C 128.565,125.062 128.399,124.728 128,124.5C 125.423,125.165 124.59,126.499 125.5,128.5C 123.824,127.817 123.157,126.483 123.5,124.5C 117.208,124.672 111.041,124.672 105,124.5C 104.383,125.449 104.549,126.282 105.5,127C 109.905,126.874 113.571,128.374 116.5,131.5C 113.95,133.737 110.95,135.237 107.5,136C 108.056,136.383 108.389,136.883 108.5,137.5C 105.875,136.542 105.875,135.376 108.5,134C 105.026,133.699 101.692,132.866 98.5,131.5C 97.2888,130.726 97.2888,129.893 98.5,129C 96.9336,128.392 95.6002,127.558 94.5,126.5C 93.3915,125.71 92.0581,125.21 90.5,125C 92.1341,124.506 93.8008,124.34 95.5,124.5C 92.8096,118.875 94.4763,115.375 100.5,114C 99.9011,112.378 99.2344,110.878 98.5,109.5C 98.5,108.833 98.1667,108.5 97.5,108.5C 97.0825,107.778 96.4158,107.278 95.5,107C 98.0432,106.86 100.377,106.194 102.5,105C 94.2303,103.463 85.897,103.13 77.5,104C 77.1667,104.333 76.8333,104.667 76.5,105C 78.5183,105.505 80.5183,106.005 82.5,106.5C 81.4019,107.397 81.4019,108.23 82.5,109C 85.7835,110.125 89.1169,111.125 92.5,112C 91.944,112.383 91.6107,112.883 91.5,113.5C 87.3675,112.102 83.0341,111.269 78.5,111C 76.4311,110.676 76.0977,109.842 77.5,108.5C 76.3864,107.224 75.3864,107.224 74.5,108.5C 72.6391,107.158 70.6391,106.158 68.5,105.5C 68.7828,104.711 69.2828,104.044 70,103.5C 74.3487,105.253 75.1821,104.42 72.5,101C 75.3053,100.558 77.9719,101.058 80.5,102.5C 83.4552,101.582 86.4552,101.582 89.5,102.5C 93.8991,102.472 94.2325,101.972 90.5,101C 95.9459,100.899 101.279,100.232 106.5,99C 104.314,97.691 102.147,97.5243 100,98.5C 97.4994,98.05 95.3328,97.05 93.5,95.5C 96.1667,94.8333 98.8333,94.1667 101.5,93.5C 101.154,92.3044 100.654,92.3044 100,93.5C 96.481,92.2801 92.981,91.1135 89.5,90C 93.4862,89.5012 97.4862,89.3345 101.5,89.5 Z"/></g>
<g><path style="opacity:0.6" fill="#62b9f7" d="M 103.5,89.5 C 104.5,89.5 105.5,89.5 106.5,89.5C 108.5,89.5 110.5,89.5 112.5,89.5C 114.698,90.1653 117.031,90.8319 119.5,91.5C 120.902,92.8425 120.569,93.6758 118.5,94C 119.833,94.6667 119.833,95.3333 118.5,96C 121.377,97.1268 124.377,97.7935 127.5,98C 123.167,98.3333 118.833,98.6667 114.5,99C 118.167,99.3333 121.833,99.6667 125.5,100C 122.635,100.183 119.969,100.683 117.5,101.5C 116.044,102.906 113.71,104.073 110.5,105C 113.275,107.607 116.609,108.94 120.5,109C 117.518,109.498 114.518,109.665 111.5,109.5C 109.402,108.065 107.069,106.898 104.5,106C 105.624,105.751 106.624,105.251 107.5,104.5C 105.252,103.676 105.086,102.676 107,101.5C 108.977,101.658 111.143,101.825 113.5,102C 112.051,100.883 110.384,100.216 108.5,100C 109.624,99.7508 110.624,99.2508 111.5,98.5C 109.038,97.206 106.705,95.706 104.5,94C 105.5,93.6667 106.5,93.3333 107.5,93C 105.456,92.5017 104.122,91.335 103.5,89.5 Z"/></g>
<g><path style="opacity:0.706" fill="#58a8eb" d="M 30.5,68.5 C 31.1239,68.9169 31.4573,69.5836 31.5,70.5C 28.7657,76.1104 30.4323,79.9437 36.5,82C 36.0183,83.0084 35.8516,84.175 36,85.5C 35.3457,84.3044 34.8457,84.3044 34.5,85.5C 35.8532,86.5237 36.5198,87.857 36.5,89.5C 39.2469,89.8134 41.9135,89.48 44.5,88.5C 43.0336,86.3432 41.2003,86.0099 39,87.5C 39.0858,85.359 38.9191,83.0257 38.5,80.5C 41.9521,80.1803 45.2855,80.1803 48.5,80.5C 49.2975,80.0431 49.6309,79.3764 49.5,78.5C 50.3909,79.2613 51.0576,80.2613 51.5,81.5C 49.2338,82.3142 46.9005,82.8142 44.5,83C 45.1258,83.7504 45.6258,84.5838 46,85.5C 47.0113,84.6634 48.1779,84.33 49.5,84.5C 49.5,86.1667 49.5,87.8333 49.5,89.5C 51.924,89.8076 54.2573,89.4742 56.5,88.5C 54.8681,84.3692 52.8681,80.0359 50.5,75.5C 51.868,74.4063 53.0347,74.7397 54,76.5C 54.3333,76.1667 54.6667,75.8333 55,75.5C 55.7065,77.0806 56.5399,78.5806 57.5,80C 60.8333,82.6667 64.1667,85.3333 67.5,88C 65.892,88.658 64.7253,88.158 64,86.5C 63.51,87.7932 63.3433,89.1266 63.5,90.5C 64.552,90.3505 65.552,90.5172 66.5,91C 65.0953,92.2692 63.4286,92.7692 61.5,92.5C 61.5,93.5 61.5,94.5 61.5,95.5C 60.8166,97.1765 59.4832,97.8432 57.5,97.5C 60.2087,95.8684 59.8753,95.3684 56.5,96C 53.5758,96.6833 51.2425,98.1833 49.5,100.5C 46.078,97.7104 45.4113,97.877 47.5,101C 45.6503,103.033 44.9836,103.033 45.5,101C 37.0641,100.424 36.0641,102.257 42.5,106.5C 43.1667,105.833 43.8333,105.167 44.5,104.5C 49.1534,106.858 54.1534,108.025 59.5,108C 54.5206,109.11 54.8539,110.11 60.5,111C 56.5066,111.17 52.5066,111.004 48.5,110.5C 48.5,109.5 48.5,108.5 48.5,107.5C 45.074,107.35 44.7406,108.516 47.5,111C 45.9556,112.187 44.2889,112.52 42.5,112C 43.7112,111.107 43.7112,110.274 42.5,109.5C 41.3461,111.856 40.0127,112.023 38.5,110C 38.9574,109.586 39.2907,109.086 39.5,108.5C 36.8564,107.604 34.1897,106.771 31.5,106C 30.1379,103.966 29.1379,101.799 28.5,99.5C 25.6544,99.0301 23.3211,99.8634 21.5,102C 23.6785,102.442 24.3452,103.442 23.5,105C 21.5273,105.495 19.5273,105.662 17.5,105.5C 18.2625,104.732 19.2625,104.232 20.5,104C 19.2068,103.51 17.8734,103.343 16.5,103.5C 17.5875,102 18.9208,100.667 20.5,99.5C 19.9747,98.8076 19.3081,98.3076 18.5,98C 23.0568,98.1058 27.0568,96.7725 30.5,94C 29.376,93.7508 28.376,93.2508 27.5,92.5C 31.1224,91.6747 34.789,91.1747 38.5,91C 34.5,90.6667 30.5,90.3333 26.5,90C 27.7588,89.0766 29.0921,88.2432 30.5,87.5C 28.2173,86.8652 26.5507,85.5318 25.5,83.5C 27.3615,75.5384 27.8615,67.5384 27,59.5C 28.2682,59.6158 29.6015,59.9491 31,60.5C 31.6667,62.1667 31.6667,63.8333 31,65.5C 30.7104,63.9559 30.0437,62.6226 29,61.5C 28.2099,64.634 28.5432,67.634 30,70.5C 30.4643,69.9056 30.631,69.2389 30.5,68.5 Z"/></g>
<g><path style="opacity:0.694" fill="#3c87d2" d="M 57.5,97.5 C 57.0825,98.2216 56.4158,98.7216 55.5,99C 56.6667,99.1667 57.8333,99.3333 59,99.5C 62.4082,98.3809 65.9082,97.7143 69.5,97.5C 69.6399,99.1238 68.9733,100.29 67.5,101C 67.8333,101.333 68.1667,101.667 68.5,102C 62.8743,101.895 57.5409,102.895 52.5,105C 57.8636,104.604 63.197,104.77 68.5,105.5C 70.6391,106.158 72.6391,107.158 74.5,108.5C 72.8966,109.868 70.5633,110.868 67.5,111.5C 64.9455,112.388 62.2788,112.721 59.5,112.5C 60.9162,114.86 60.5828,116.86 58.5,118.5C 57.4826,115.972 56.3159,115.972 55,118.5C 53.8074,116.557 52.3074,116.724 50.5,119C 53.8333,119.333 57.1667,119.667 60.5,120C 58.8251,120.985 57.1585,121.819 55.5,122.5C 51.8333,122.5 48.1667,122.5 44.5,122.5C 44.0831,121.876 43.4164,121.543 42.5,121.5C 38.7728,123.554 34.7728,124.554 30.5,124.5C 28.5165,124.617 26.8498,123.95 25.5,122.5C 23.2324,123.544 20.8991,123.711 18.5,123C 20.3197,122.8 21.653,121.966 22.5,120.5C 25.1769,118.568 28.1769,118.068 31.5,119C 37.7036,118.993 38.3702,119.993 33.5,122C 36.9605,121.428 40.4605,120.594 44,119.5C 45.5226,117.234 47.6892,116.067 50.5,116C 50.0426,115.586 49.7093,115.086 49.5,114.5C 45.5,113.167 41.5,113.167 37.5,114.5C 39.7662,115.314 42.0995,115.814 44.5,116C 40.5138,116.499 36.5138,116.666 32.5,116.5C 32.5271,114.801 33.1938,113.467 34.5,112.5C 34.6107,111.883 34.944,111.383 35.5,111C 34.1416,110.066 32.8083,109.232 31.5,108.5C 26.7799,107.79 22.1132,106.79 17.5,105.5C 19.5273,105.662 21.5273,105.495 23.5,105C 24.3452,103.442 23.6785,102.442 21.5,102C 23.3211,99.8634 25.6544,99.0301 28.5,99.5C 29.1379,101.799 30.1379,103.966 31.5,106C 34.1897,106.771 36.8564,107.604 39.5,108.5C 39.2907,109.086 38.9574,109.586 38.5,110C 40.0127,112.023 41.3461,111.856 42.5,109.5C 43.7112,110.274 43.7112,111.107 42.5,112C 44.2889,112.52 45.9556,112.187 47.5,111C 44.7406,108.516 45.074,107.35 48.5,107.5C 48.5,108.5 48.5,109.5 48.5,110.5C 52.5066,111.004 56.5066,111.17 60.5,111C 54.8539,110.11 54.5206,109.11 59.5,108C 54.1534,108.025 49.1534,106.858 44.5,104.5C 43.8333,105.167 43.1667,105.833 42.5,106.5C 36.0641,102.257 37.0641,100.424 45.5,101C 44.9836,103.033 45.6503,103.033 47.5,101C 45.4113,97.877 46.078,97.7104 49.5,100.5C 51.2425,98.1833 53.5758,96.6833 56.5,96C 59.8753,95.3684 60.2087,95.8684 57.5,97.5 Z"/></g>
<g><path style="opacity:0.6" fill="#54a8e7" d="M 97.5,108.5 C 92.3615,107.937 87.3615,107.27 82.5,106.5C 80.5183,106.005 78.5183,105.505 76.5,105C 76.8333,104.667 77.1667,104.333 77.5,104C 85.897,103.13 94.2303,103.463 102.5,105C 100.377,106.194 98.0432,106.86 95.5,107C 96.4158,107.278 97.0825,107.778 97.5,108.5 Z"/></g>
<g><path style="opacity:0.739" fill="#5ab3f5" d="M 134.5,96.5 C 139.395,97.8789 144.395,98.8789 149.5,99.5C 149.5,100.167 149.5,100.833 149.5,101.5C 146.15,101.335 142.817,101.502 139.5,102C 137.285,103.379 135.619,105.213 134.5,107.5C 133.448,107.649 132.448,107.483 131.5,107C 132.833,105.333 134.167,103.667 135.5,102C 134.833,101.667 134.167,101.333 133.5,101C 135.384,100.784 137.051,100.117 138.5,99C 136.563,98.8784 135.23,98.045 134.5,96.5 Z"/></g>
<g><path style="opacity:0.292" fill="#c2e6fe" d="M 149.5,101.5 C 149.5,104.167 149.5,106.833 149.5,109.5C 148.167,109.5 146.833,109.5 145.5,109.5C 145.167,108.167 144.833,108.167 144.5,109.5C 141.546,108.729 138.546,108.062 135.5,107.5C 135.167,107.5 134.833,107.5 134.5,107.5C 135.619,105.213 137.285,103.379 139.5,102C 142.817,101.502 146.15,101.335 149.5,101.5 Z"/></g>
<g><path style="opacity:0.103" fill="#e6f6fe" d="M 16.5,103.5 C 17.8734,103.343 19.2068,103.51 20.5,104C 19.2625,104.232 18.2625,104.732 17.5,105.5C 16.9569,105.56 16.6236,105.893 16.5,106.5C 18.0777,107.298 19.7444,107.798 21.5,108C 20.9056,108.464 20.2389,108.631 19.5,108.5C 17.4727,108.338 15.4727,108.505 13.5,109C 11.8807,109.236 10.8807,110.069 10.5,111.5C 10.5,111.833 10.5,112.167 10.5,112.5C 8.80081,112.34 7.13414,112.506 5.5,113C 4.16667,113.667 4.16667,114.333 5.5,115C 9.41897,117.237 13.7523,118.404 18.5,118.5C 19.8333,119.167 21.1667,119.833 22.5,120.5C 21.391,120.557 20.391,120.89 19.5,121.5C 17.7116,120.378 15.7116,120.211 13.5,121C 12.244,121.417 11.5774,122.25 11.5,123.5C 9.88277,124.038 8.2161,124.371 6.5,124.5C 5.02953,121.706 2.69619,120.039 -0.5,119.5C -0.5,113.833 -0.5,108.167 -0.5,102.5C 3.17081,102.278 6.83748,101.944 10.5,101.5C 12.7853,101.676 14.7853,102.343 16.5,103.5 Z"/></g>
<g><path style="opacity:0.058" fill="#e4f5fd" d="M 31.5,108.5 C 32.8083,109.232 34.1416,110.066 35.5,111C 34.944,111.383 34.6107,111.883 34.5,112.5C 32.5,112.5 30.5,112.5 28.5,112.5C 28.5,111.167 28.5,109.833 28.5,108.5C 29.5,108.5 30.5,108.5 31.5,108.5 Z"/></g>
<g><path style="opacity:0.301" fill="#abeafe" d="M 82.5,106.5 C 87.3615,107.27 92.3615,107.937 97.5,108.5C 98.1667,108.5 98.5,108.833 98.5,109.5C 98.5,110.5 98.5,111.5 98.5,112.5C 96.1944,112.993 93.861,113.326 91.5,113.5C 91.6107,112.883 91.944,112.383 92.5,112C 89.1169,111.125 85.7835,110.125 82.5,109C 81.4019,108.23 81.4019,107.397 82.5,106.5 Z"/></g>
<g><path style="opacity:0.62" fill="#4c89c8" d="M 21.5,112.5 C 17.8333,112.5 14.1667,112.5 10.5,112.5C 10.5,112.167 10.5,111.833 10.5,111.5C 12.2161,111.371 13.8828,111.038 15.5,110.5C 15.4346,110.938 15.6012,111.272 16,111.5C 19.3303,109.862 22.8303,109.362 26.5,110C 23.4557,110.359 23.1224,111.026 25.5,112C 24.2068,112.49 22.8734,112.657 21.5,112.5 Z"/></g>
<g><path style="opacity:0.567" fill="#68b9f5" d="M 111.5,109.5 C 110.402,110.397 110.402,111.23 111.5,112C 115.741,112.402 119.907,111.902 124,110.5C 125.5,110.833 127,111.167 128.5,111.5C 125.916,112.708 123.416,114.042 121,115.5C 117.333,114.833 113.667,114.167 110,113.5C 108.93,113.528 108.097,113.861 107.5,114.5C 105.396,114.799 103.396,114.466 101.5,113.5C 104.827,112.861 108.161,111.528 111.5,109.5 Z"/></g>
<g><path style="opacity:0.708" fill="#4a97df" d="M 117.5,101.5 C 118.738,101.81 118.738,102.31 117.5,103C 119.9,103.186 122.234,103.686 124.5,104.5C 123.91,105.799 122.91,106.632 121.5,107C 122,107.5 122.5,108 123,108.5C 124.388,107.446 125.888,107.28 127.5,108C 126.833,108.333 126.167,108.667 125.5,109C 131.188,111.047 137.021,112.547 143,113.5C 144.059,113.37 144.892,112.87 145.5,112C 143.285,110.956 140.952,110.29 138.5,110C 137.058,109.623 136.058,108.79 135.5,107.5C 138.546,108.062 141.546,108.729 144.5,109.5C 144.833,109.5 145.167,109.5 145.5,109.5C 146.833,109.5 148.167,109.5 149.5,109.5C 149.5,111.167 149.5,112.833 149.5,114.5C 144.271,114.015 139.271,114.682 134.5,116.5C 127.679,117.621 121.013,117.287 114.5,115.5C 112.194,115.007 109.861,114.674 107.5,114.5C 108.097,113.861 108.93,113.528 110,113.5C 113.667,114.167 117.333,114.833 121,115.5C 123.416,114.042 125.916,112.708 128.5,111.5C 127,111.167 125.5,110.833 124,110.5C 119.907,111.902 115.741,112.402 111.5,112C 110.402,111.23 110.402,110.397 111.5,109.5C 114.518,109.665 117.518,109.498 120.5,109C 116.609,108.94 113.275,107.607 110.5,105C 113.71,104.073 116.044,102.906 117.5,101.5 Z"/></g>
<g><path style="opacity:0.569" fill="#70b9ef" d="M 17.5,105.5 C 22.1132,106.79 26.7799,107.79 31.5,108.5C 30.5,108.5 29.5,108.5 28.5,108.5C 28.5,109.833 28.5,111.167 28.5,112.5C 30.5,112.5 32.5,112.5 34.5,112.5C 33.1938,113.467 32.5271,114.801 32.5,116.5C 36.5138,116.666 40.5138,116.499 44.5,116C 42.0995,115.814 39.7662,115.314 37.5,114.5C 41.5,113.167 45.5,113.167 49.5,114.5C 49.7093,115.086 50.0426,115.586 50.5,116C 47.6892,116.067 45.5226,117.234 44,119.5C 40.4605,120.594 36.9605,121.428 33.5,122C 38.3702,119.993 37.7036,118.993 31.5,119C 28.1769,118.068 25.1769,118.568 22.5,120.5C 21.1667,119.833 19.8333,119.167 18.5,118.5C 18.9876,116.191 19.9876,114.191 21.5,112.5C 22.8734,112.657 24.2068,112.49 25.5,112C 23.1224,111.026 23.4557,110.359 26.5,110C 22.8303,109.362 19.3303,109.862 16,111.5C 15.6012,111.272 15.4346,110.938 15.5,110.5C 16.8333,109.833 18.1667,109.167 19.5,108.5C 20.2389,108.631 20.9056,108.464 21.5,108C 19.7444,107.798 18.0777,107.298 16.5,106.5C 16.6236,105.893 16.9569,105.56 17.5,105.5 Z"/></g>
<g><path style="opacity:0.22" fill="#b1e1fd" d="M 10.5,112.5 C 14.1667,112.5 17.8333,112.5 21.5,112.5C 19.9876,114.191 18.9876,116.191 18.5,118.5C 13.7523,118.404 9.41897,117.237 5.5,115C 4.16667,114.333 4.16667,113.667 5.5,113C 7.13414,112.506 8.80081,112.34 10.5,112.5 Z"/></g>
<g><path style="opacity:0.582" fill="#5da7e2" d="M 74.5,108.5 C 75.3864,107.224 76.3864,107.224 77.5,108.5C 76.0977,109.842 76.4311,110.676 78.5,111C 83.0341,111.269 87.3675,112.102 91.5,113.5C 93.861,113.326 96.1944,112.993 98.5,112.5C 98.5,111.5 98.5,110.5 98.5,109.5C 99.2344,110.878 99.9011,112.378 100.5,114C 94.4763,115.375 92.8096,118.875 95.5,124.5C 93.8008,124.34 92.1341,124.506 90.5,125C 92.0581,125.21 93.3915,125.71 94.5,126.5C 93.5,126.5 92.5,126.5 91.5,126.5C 89.1992,125.94 86.8659,125.44 84.5,125C 83.944,124.617 83.6107,124.117 83.5,123.5C 85.1368,122.782 86.8034,122.616 88.5,123C 86.0684,124.087 86.4017,124.587 89.5,124.5C 89.33,123.178 89.6634,122.011 90.5,121C 88.1616,119.492 87.1616,117.325 87.5,114.5C 84.4816,114.335 81.4816,114.502 78.5,115C 77.3567,118.022 76.0233,118.188 74.5,115.5C 75.5,114.833 76.5,114.167 77.5,113.5C 77.2907,112.914 76.9574,112.414 76.5,112C 73.5184,111.502 70.5184,111.335 67.5,111.5C 70.5633,110.868 72.8966,109.868 74.5,108.5 Z"/></g>
<g><path style="opacity:0.349" fill="#b8e3fe" d="M 149.5,114.5 C 149.5,117.833 149.5,121.167 149.5,124.5C 147.938,124.733 146.605,125.4 145.5,126.5C 146.219,123.927 147.219,121.427 148.5,119C 143.305,118.297 138.139,118.464 133,119.5C 132.167,119.167 131.333,118.833 130.5,118.5C 131.949,117.828 133.282,117.161 134.5,116.5C 139.271,114.682 144.271,114.015 149.5,114.5 Z"/></g>
<g><path style="opacity:0.635" fill="#72bdf2" d="M 114.5,115.5 C 121.013,117.287 127.679,117.621 134.5,116.5C 133.282,117.161 131.949,117.828 130.5,118.5C 131.333,118.833 132.167,119.167 133,119.5C 138.139,118.464 143.305,118.297 148.5,119C 147.219,121.427 146.219,123.927 145.5,126.5C 143.406,130.799 144.74,132.799 149.5,132.5C 149.5,135.5 149.5,138.5 149.5,141.5C 146.575,141.54 143.909,140.707 141.5,139C 142.357,138.311 143.023,137.478 143.5,136.5C 142.167,135.5 142.167,134.5 143.5,133.5C 142.301,130.49 140.967,130.157 139.5,132.5C 136.678,132.643 134.345,131.809 132.5,130C 130.187,129.338 127.854,128.838 125.5,128.5C 124.59,126.499 125.423,125.165 128,124.5C 128.399,124.728 128.565,125.062 128.5,125.5C 132.243,128.423 136.576,129.257 141.5,128C 134.92,127.759 134.42,126.925 140,125.5C 140.873,125.735 141.707,126.069 142.5,126.5C 143.696,126.154 143.696,125.654 142.5,125C 140.567,124.749 138.734,124.249 137,123.5C 136.617,124.056 136.117,124.389 135.5,124.5C 135.389,123.883 135.056,123.383 134.5,123C 131.471,122.461 128.471,121.794 125.5,121C 126.654,120.086 126.487,119.253 125,118.5C 122.039,118.652 119.705,119.318 118,120.5C 115.444,119.781 114.277,118.114 114.5,115.5 Z"/></g>
<g><path style="opacity:0.378" fill="#98dffe" d="M 125.5,128.5 C 127.854,128.838 130.187,129.338 132.5,130C 134.345,131.809 136.678,132.643 139.5,132.5C 139.48,134.143 140.147,135.476 141.5,136.5C 139.45,136.299 137.45,136.299 135.5,136.5C 130.999,137.806 126.499,137.806 122,136.5C 120.333,137.167 118.667,137.833 117,138.5C 114.281,137.556 111.448,137.223 108.5,137.5C 108.389,136.883 108.056,136.383 107.5,136C 110.95,135.237 113.95,133.737 116.5,131.5C 113.571,128.374 109.905,126.874 105.5,127C 104.549,126.282 104.383,125.449 105,124.5C 111.041,124.672 117.208,124.672 123.5,124.5C 123.157,126.483 123.824,127.817 125.5,128.5 Z"/></g>
<g><path style="opacity:0.816" fill="#357cc9" d="M 128.5,125.5 C 130.806,125.007 133.139,124.674 135.5,124.5C 136.117,124.389 136.617,124.056 137,123.5C 138.734,124.249 140.567,124.749 142.5,125C 143.696,125.654 143.696,126.154 142.5,126.5C 141.707,126.069 140.873,125.735 140,125.5C 134.42,126.925 134.92,127.759 141.5,128C 136.576,129.257 132.243,128.423 128.5,125.5 Z"/></g>
<g><path style="opacity:0.278" fill="#afebfe" d="M 83.5,123.5 C 83.6107,124.117 83.944,124.617 84.5,125C 86.8659,125.44 89.1992,125.94 91.5,126.5C 91.5,127.167 91.5,127.833 91.5,128.5C 88.1226,128.068 85.1226,128.735 82.5,130.5C 84.8439,130.94 86.8439,131.94 88.5,133.5C 76.7897,134.211 65.123,134.211 53.5,133.5C 52.3131,132.176 52.6465,131.176 54.5,130.5C 60.1138,131.621 65.7805,131.788 71.5,131C 71.8333,130.667 72.1667,130.333 72.5,130C 68.6757,128.698 68.6757,127.198 72.5,125.5C 73.4287,124.311 73.762,122.978 73.5,121.5C 77.0109,121.899 80.3443,122.566 83.5,123.5 Z"/></g>
<g><path style="opacity:0.671" fill="#5fbbf5" d="M 22.5,120.5 C 21.653,121.966 20.3197,122.8 18.5,123C 20.8991,123.711 23.2324,123.544 25.5,122.5C 26.8498,123.95 28.5165,124.617 30.5,124.5C 31.0577,125.79 32.0577,126.623 33.5,127C 31.0687,127.252 28.7354,126.752 26.5,125.5C 24.9984,126.083 23.6651,126.916 22.5,128C 26.5653,129.19 30.5653,130.69 34.5,132.5C 33.2643,133.357 31.931,134.023 30.5,134.5C 29.269,135.651 29.269,136.817 30.5,138C 29.4734,138.513 28.4734,139.013 27.5,139.5C 27.631,138.761 27.4643,138.094 27,137.5C 25.4569,138.285 23.7902,138.285 22,137.5C 18.9363,138.227 16.7697,140.061 15.5,143C 16.697,144.52 18.197,145.687 20,146.5C 20.4828,147.448 20.6495,148.448 20.5,149.5C 18.5,149.5 16.5,149.5 14.5,149.5C 15.7345,147.602 15.4011,145.935 13.5,144.5C 13.3433,143.127 13.51,141.793 14,140.5C 16.4148,139.589 17.9148,137.922 18.5,135.5C 17.1525,133.52 15.1525,132.353 12.5,132C 10.8698,128.597 8.20313,126.597 4.5,126C 5.4158,125.722 6.08247,125.222 6.5,124.5C 8.2161,124.371 9.88277,124.038 11.5,123.5C 14.1123,122.629 16.779,121.963 19.5,121.5C 20.391,120.89 21.391,120.557 22.5,120.5 Z"/></g>
<g><path style="opacity:0.745" fill="#428fdd" d="M 91.5,128.5 C 92.3764,128.369 93.0431,128.702 93.5,129.5C 89.8927,130.489 86.226,130.823 82.5,130.5C 85.1226,128.735 88.1226,128.068 91.5,128.5 Z"/></g>
<g><path style="opacity:0.399" fill="#a4dbff" d="M -0.5,119.5 C 2.69619,120.039 5.02953,121.706 6.5,124.5C 6.08247,125.222 5.4158,125.722 4.5,126C 8.20313,126.597 10.8698,128.597 12.5,132C 15.1525,132.353 17.1525,133.52 18.5,135.5C 12.143,135.476 5.80968,135.81 -0.5,136.5C -0.5,130.833 -0.5,125.167 -0.5,119.5 Z"/></g>
<g><path style="opacity:0.737" fill="#4288cf" d="M 149.5,141.5 C 149.5,142.167 149.5,142.833 149.5,143.5C 143.794,142.323 138.127,140.823 132.5,139C 133.833,138.667 135.167,138.333 136.5,138C 135.944,137.617 135.611,137.117 135.5,136.5C 137.45,136.299 139.45,136.299 141.5,136.5C 140.147,135.476 139.48,134.143 139.5,132.5C 140.967,130.157 142.301,130.49 143.5,133.5C 142.167,134.5 142.167,135.5 143.5,136.5C 143.023,137.478 142.357,138.311 141.5,139C 143.909,140.707 146.575,141.54 149.5,141.5 Z"/></g>
<g><path style="opacity:0.497" fill="#7dcaf6" d="M 135.5,136.5 C 135.611,137.117 135.944,137.617 136.5,138C 135.167,138.333 133.833,138.667 132.5,139C 138.127,140.823 143.794,142.323 149.5,143.5C 149.5,145.5 149.5,147.5 149.5,149.5C 144.833,149.5 140.167,149.5 135.5,149.5C 138.77,148.717 142.103,147.717 145.5,146.5C 146.386,145.675 146.719,144.675 146.5,143.5C 145.448,143.351 144.448,143.517 143.5,144C 144.696,144.654 144.696,145.154 143.5,145.5C 142.646,144.478 141.646,143.645 140.5,143C 134.431,142.769 128.431,142.602 122.5,142.5C 121.062,142.719 119.729,143.219 118.5,144C 117.92,145.335 117.587,146.502 117.5,147.5C 117.167,147.5 116.833,147.5 116.5,147.5C 112.381,145.396 112.714,143.896 117.5,143C 114.475,141.065 111.475,139.232 108.5,137.5C 111.448,137.223 114.281,137.556 117,138.5C 118.667,137.833 120.333,137.167 122,136.5C 126.499,137.806 130.999,137.806 135.5,136.5 Z"/></g>
<g><path style="opacity:0.139" fill="#d8f0ff" d="M 18.5,135.5 C 17.9148,137.922 16.4148,139.589 14,140.5C 13.51,141.793 13.3433,143.127 13.5,144.5C 12.8826,144.389 12.3826,144.056 12,143.5C 8.0556,145.361 3.88893,146.361 -0.5,146.5C -0.5,143.167 -0.5,139.833 -0.5,136.5C 5.80968,135.81 12.143,135.476 18.5,135.5 Z"/></g>
<g><path style="opacity:0.475" fill="#82d1fa" d="M 67.5,111.5 C 70.5184,111.335 73.5184,111.502 76.5,112C 76.9574,112.414 77.2907,112.914 77.5,113.5C 76.5,114.167 75.5,114.833 74.5,115.5C 76.0233,118.188 77.3567,118.022 78.5,115C 81.4816,114.502 84.4816,114.335 87.5,114.5C 87.1616,117.325 88.1616,119.492 90.5,121C 89.6634,122.011 89.33,123.178 89.5,124.5C 86.4017,124.587 86.0684,124.087 88.5,123C 86.8034,122.616 85.1368,122.782 83.5,123.5C 80.3443,122.566 77.0109,121.899 73.5,121.5C 73.762,122.978 73.4287,124.311 72.5,125.5C 68.6757,127.198 68.6757,128.698 72.5,130C 72.1667,130.333 71.8333,130.667 71.5,131C 65.7805,131.788 60.1138,131.621 54.5,130.5C 52.6465,131.176 52.3131,132.176 53.5,133.5C 65.123,134.211 76.7897,134.211 88.5,133.5C 92.1441,133.859 95.4775,135.025 98.5,137C 90.3828,136.228 89.3828,138.561 95.5,144C 105.327,146.204 106.66,144.204 99.5,138C 101.417,138.027 103.084,138.861 104.5,140.5C 105.491,142.323 106.824,143.823 108.5,145C 106.285,146.044 103.952,146.71 101.5,147C 103.744,147.05 105.411,147.883 106.5,149.5C 103.5,149.5 100.5,149.5 97.5,149.5C 98.0906,148.849 98.7573,148.182 99.5,147.5C 99.2907,146.914 98.9574,146.414 98.5,146C 96.1339,145.438 93.8006,145.604 91.5,146.5C 85.2318,145.062 79.2318,142.896 73.5,140C 59.3864,139.983 45.3864,139.15 31.5,137.5C 31.7135,139.144 31.3802,140.644 30.5,142C 32.9928,143.583 32.8262,145.083 30,146.5C 29.6758,144.431 28.8425,144.098 27.5,145.5C 22.2215,143.096 22.2215,141.096 27.5,139.5C 28.4734,139.013 29.4734,138.513 30.5,138C 29.269,136.817 29.269,135.651 30.5,134.5C 31.931,134.023 33.2643,133.357 34.5,132.5C 30.5653,130.69 26.5653,129.19 22.5,128C 23.6651,126.916 24.9984,126.083 26.5,125.5C 28.7354,126.752 31.0687,127.252 33.5,127C 32.0577,126.623 31.0577,125.79 30.5,124.5C 34.7728,124.554 38.7728,123.554 42.5,121.5C 43.4164,121.543 44.0831,121.876 44.5,122.5C 43.1931,123.802 43.1931,125.135 44.5,126.5C 52.145,127.665 59.8117,127.831 67.5,127C 67.1667,126.667 66.8333,126.333 66.5,126C 67.7932,125.51 69.1266,125.343 70.5,125.5C 71.0522,123.669 71.0522,122.003 70.5,120.5C 67.9787,119.034 65.312,118.534 62.5,119C 63.9733,119.71 64.6399,120.876 64.5,122.5C 61.5,122.5 58.5,122.5 55.5,122.5C 57.1585,121.819 58.8251,120.985 60.5,120C 57.1667,119.667 53.8333,119.333 50.5,119C 52.3074,116.724 53.8074,116.557 55,118.5C 56.3159,115.972 57.4826,115.972 58.5,118.5C 60.5828,116.86 60.9162,114.86 59.5,112.5C 62.2788,112.721 64.9455,112.388 67.5,111.5 Z"/></g>
<g><path style="opacity:0.272" fill="#b0ecfe" d="M 44.5,122.5 C 48.1667,122.5 51.8333,122.5 55.5,122.5C 58.5,122.5 61.5,122.5 64.5,122.5C 64.6399,120.876 63.9733,119.71 62.5,119C 65.312,118.534 67.9787,119.034 70.5,120.5C 71.0522,122.003 71.0522,123.669 70.5,125.5C 69.1266,125.343 67.7932,125.51 66.5,126C 66.8333,126.333 67.1667,126.667 67.5,127C 59.8117,127.831 52.145,127.665 44.5,126.5C 43.1931,125.135 43.1931,123.802 44.5,122.5 Z"/></g>
<g><path style="opacity:0.304" fill="#ade8fe" d="M 27.5,139.5 C 22.2215,141.096 22.2215,143.096 27.5,145.5C 28.8425,144.098 29.6758,144.431 30,146.5C 32.8262,145.083 32.9928,143.583 30.5,142C 31.3802,140.644 31.7135,139.144 31.5,137.5C 45.3864,139.15 59.3864,139.983 73.5,140C 79.2318,142.896 85.2318,145.062 91.5,146.5C 93.8006,145.604 96.1339,145.438 98.5,146C 98.9574,146.414 99.2907,146.914 99.5,147.5C 98.7573,148.182 98.0906,148.849 97.5,149.5C 71.8333,149.5 46.1667,149.5 20.5,149.5C 20.6495,148.448 20.4828,147.448 20,146.5C 18.197,145.687 16.697,144.52 15.5,143C 16.7697,140.061 18.9363,138.227 22,137.5C 23.7902,138.285 25.4569,138.285 27,137.5C 27.4643,138.094 27.631,138.761 27.5,139.5 Z"/></g>
<g><path style="opacity:0.318" fill="#aae0fc" d="M 91.5,126.5 C 92.5,126.5 93.5,126.5 94.5,126.5C 95.6002,127.558 96.9336,128.392 98.5,129C 97.2888,129.893 97.2888,130.726 98.5,131.5C 101.692,132.866 105.026,133.699 108.5,134C 105.875,135.376 105.875,136.542 108.5,137.5C 111.475,139.232 114.475,141.065 117.5,143C 112.714,143.896 112.381,145.396 116.5,147.5C 116.833,148.833 117.167,148.833 117.5,147.5C 117.587,146.502 117.92,145.335 118.5,144C 119.729,143.219 121.062,142.719 122.5,142.5C 128.431,142.602 134.431,142.769 140.5,143C 141.646,143.645 142.646,144.478 143.5,145.5C 144.696,145.154 144.696,144.654 143.5,144C 144.448,143.517 145.448,143.351 146.5,143.5C 146.719,144.675 146.386,145.675 145.5,146.5C 142.103,147.717 138.77,148.717 135.5,149.5C 125.833,149.5 116.167,149.5 106.5,149.5C 105.411,147.883 103.744,147.05 101.5,147C 103.952,146.71 106.285,146.044 108.5,145C 106.824,143.823 105.491,142.323 104.5,140.5C 103.084,138.861 101.417,138.027 99.5,138C 106.66,144.204 105.327,146.204 95.5,144C 89.3828,138.561 90.3828,136.228 98.5,137C 95.4775,135.025 92.1441,133.859 88.5,133.5C 86.8439,131.94 84.8439,130.94 82.5,130.5C 86.226,130.823 89.8927,130.489 93.5,129.5C 93.0431,128.702 92.3764,128.369 91.5,128.5C 91.5,127.833 91.5,127.167 91.5,126.5 Z"/></g>
</svg>
